<svg width="16" height="16" viewBox="0 0 16 16" fill="none" xmlns="http://www.w3.org/2000/svg">
<path d="M13 8.33341C13 7.41341 13.7467 6.66675 14.6667 6.66675V6.00008C14.6667 3.33341 14 2.66675 11.3334 2.66675H4.66671C2.00004 2.66675 1.33337 3.33341 1.33337 6.00008V6.33341C2.25337 6.33341 3.00004 7.08008 3.00004 8.00008C3.00004 8.92008 2.25337 9.66675 1.33337 9.66675V10.0001C1.33337 12.6667 2.00004 13.3334 4.66671 13.3334H11.3334C14 13.3334 14.6667 12.6667 14.6667 10.0001C13.7467 10.0001 13 9.25341 13 8.33341Z" stroke="#717171" stroke-linecap="round" stroke-linejoin="round"/>
<path d="M6 9.83325L10 5.83325" stroke="#717171" stroke-linecap="round" stroke-linejoin="round"/>
<path d="M9.9963 9.83333H10.0023" stroke="#717171" stroke-linecap="round" stroke-linejoin="round"/>
<path d="M5.9963 6.16659H6.00229" stroke="#717171" stroke-linecap="round" stroke-linejoin="round"/>
</svg>
