<svg width="16" height="16" viewBox="0 0 16 16" fill="none" xmlns="http://www.w3.org/2000/svg">
<path d="M12.8787 8.99992H10.2954C9.95294 8.99956 9.62434 9.13503 9.38163 9.37661C9.13893 9.61818 9.00194 9.94615 9.00071 10.2886V12.8719C9.00053 13.042 9.0339 13.2104 9.0989 13.3676C9.1639 13.5247 9.25926 13.6675 9.37952 13.7878C9.49977 13.908 9.64256 14.0034 9.79972 14.0684C9.95688 14.1334 10.1253 14.1668 10.2954 14.1666H12.8787C13.221 14.1652 13.5488 14.0281 13.7903 13.7854C14.0317 13.5427 14.1671 13.2142 14.1667 12.8719V10.2886C14.1669 10.1194 14.1337 9.95183 14.069 9.79548C14.0044 9.63914 13.9095 9.49708 13.7899 9.37744C13.6702 9.2578 13.5282 9.16294 13.3718 9.09827C13.2155 9.03361 13.0479 9.00041 12.8787 9.00059M5.70471 8.99992H3.12137C2.7791 9.00186 2.45151 9.13918 2.21017 9.3819C1.96883 9.62461 1.83337 9.95298 1.83337 10.2953V12.8786C1.8332 13.0478 1.86639 13.2153 1.93106 13.3717C1.99573 13.528 2.09059 13.6701 2.21023 13.7897C2.32987 13.9094 2.47192 14.0042 2.62827 14.0689C2.78462 14.1336 2.95218 14.1668 3.12137 14.1666H5.70471C6.04703 14.1669 6.37553 14.0316 6.61821 13.7901C6.8609 13.5487 6.99796 13.2209 6.99937 12.8786V10.2953C6.99955 10.1252 6.96618 9.95675 6.90118 9.7996C6.83618 9.64244 6.74082 9.49965 6.62057 9.37939C6.50031 9.25914 6.35752 9.16378 6.20036 9.09878C6.04321 9.03378 5.87478 9.00041 5.70471 9.00059M5.70471 1.83325H3.12137C2.95218 1.83308 2.78462 1.86627 2.62827 1.93094C2.47192 1.9956 2.32987 2.09047 2.21023 2.21011C2.09059 2.32974 1.99573 2.4718 1.93106 2.62815C1.86639 2.7845 1.8332 2.95206 1.83337 3.12125V5.70459C1.83302 6.04691 1.96839 6.37541 2.20982 6.61809C2.45126 6.86077 2.77906 6.99784 3.12137 6.99925H5.70471C5.87478 6.99943 6.04321 6.96606 6.20036 6.90106C6.35752 6.83606 6.50031 6.7407 6.62057 6.62044C6.74082 6.50019 6.83618 6.3574 6.90118 6.20024C6.96618 6.04309 6.99955 5.87465 6.99937 5.70459V3.12125C6.99796 2.77893 6.8609 2.45114 6.61821 2.2097C6.37553 1.96827 6.04703 1.8329 5.70471 1.83325ZM12.8787 1.83325H10.2954C9.95305 1.8329 9.62455 1.96827 9.38187 2.2097C9.13919 2.45114 9.00212 2.77893 9.00071 3.12125V5.70459C9.00089 6.0479 9.13734 6.3771 9.3801 6.61986C9.62286 6.86262 9.95206 6.99908 10.2954 6.99925H12.8787C13.221 6.99784 13.5488 6.86077 13.7903 6.61809C14.0317 6.37541 14.1671 6.04691 14.1667 5.70459V3.12125C14.1669 2.95206 14.1337 2.7845 14.069 2.62815C14.0044 2.4718 13.9095 2.32974 13.7899 2.21011C13.6702 2.09047 13.5282 1.9956 13.3718 1.93094C13.2155 1.86627 13.0479 1.83308 12.8787 1.83325Z" stroke="#717171" stroke-linecap="round" stroke-linejoin="round"/>
</svg>
