<svg width="24" height="24" viewBox="0 0 24 24" fill="none" xmlns="http://www.w3.org/2000/svg">
<path d="M7.33333 17.25C7.16806 17.25 7.02961 17.194 6.918 17.082C6.80639 16.97 6.75039 16.8316 6.75 16.6667V15.2521C6.75 15.0965 6.77917 14.9482 6.8375 14.807C6.89583 14.6658 6.97847 14.542 7.08542 14.4354L14.45 7.08542C14.5667 6.97847 14.6956 6.89583 14.8368 6.8375C14.9779 6.77917 15.1261 6.75 15.2812 6.75C15.4364 6.75 15.5871 6.77917 15.7333 6.8375C15.8796 6.89583 16.0059 6.98333 16.1125 7.1L16.9146 7.91667C17.0312 8.02361 17.1162 8.15 17.1695 8.29583C17.2228 8.44167 17.2496 8.5875 17.25 8.73333C17.25 8.88889 17.2232 9.03725 17.1695 9.17842C17.1158 9.31958 17.0309 9.44831 16.9146 9.56458L9.56458 16.9146C9.45764 17.0215 9.33358 17.1042 9.19242 17.1625C9.05125 17.2208 8.90308 17.25 8.74792 17.25H7.33333ZM15.2667 9.55L16.0833 8.73333L15.2667 7.91667L14.45 8.73333L15.2667 9.55Z" fill="white"/>
</svg>
