<svg width="42" height="42" viewBox="0 0 42 42" fill="none" xmlns="http://www.w3.org/2000/svg">
<rect width="42" height="42" rx="5" fill="#FFE647" fill-opacity="0.25"/>
<path d="M28.1875 29.125C28.1875 29.2079 28.1546 29.2874 28.096 29.346C28.0374 29.4046 27.9579 29.4375 27.875 29.4375H19.75C19.6671 29.4375 19.5877 29.4046 19.5291 29.346C19.4705 29.2874 19.4375 29.2079 19.4375 29.125C19.4375 29.0421 19.4705 28.9626 19.5291 28.904C19.5877 28.8454 19.6671 28.8125 19.75 28.8125H27.875C27.9579 28.8125 28.0374 28.8454 28.096 28.904C28.1546 28.9626 28.1875 29.0421 28.1875 29.125ZM28.1875 23.5V26C28.1875 26.2487 28.0888 26.4871 27.9129 26.6629C27.7371 26.8387 27.4987 26.9375 27.25 26.9375H19.9149C19.7406 26.9382 19.5696 26.89 19.4213 26.7985C19.273 26.7069 19.1533 26.5756 19.0758 26.4195L14.536 17.357C14.4712 17.2267 14.4375 17.0831 14.4375 16.9375C14.4375 16.7919 14.4712 16.6483 14.536 16.518L16.2641 13.0805C16.3746 12.8594 16.5679 12.6908 16.802 12.6115C17.0361 12.5322 17.292 12.5486 17.5141 12.657L20.1532 13.7719L20.1711 13.7805C20.2813 13.8355 20.3795 13.9117 20.4602 14.0047C20.5409 14.0977 20.6025 14.2057 20.6414 14.3225C20.6804 14.4393 20.6959 14.5626 20.6872 14.6854C20.6785 14.8083 20.6457 14.9282 20.5907 15.0383L20.586 15.0461L19.4688 17.1141C19.4477 17.157 19.4367 17.2042 19.4367 17.252C19.4367 17.2998 19.4477 17.347 19.4688 17.3899L21.9516 22.3899C21.9776 22.4415 22.0175 22.4849 22.0667 22.5153C22.116 22.5456 22.1727 22.5617 22.2305 22.5617H27.25C27.3732 22.5617 27.4952 22.586 27.609 22.6332C27.7228 22.6803 27.8262 22.7495 27.9132 22.8366C28.0003 22.9237 28.0693 23.0272 28.1164 23.141C28.1635 23.2548 28.1876 23.3768 28.1875 23.5ZM27.5625 23.5C27.5625 23.4171 27.5296 23.3376 27.471 23.279C27.4124 23.2204 27.3329 23.1875 27.25 23.1875H22.2321C22.0574 23.1886 21.8859 23.1407 21.7371 23.0491C21.5884 22.9575 21.4683 22.826 21.3907 22.6695L18.9078 17.6695C18.8429 17.5395 18.8091 17.3961 18.8091 17.2508C18.8091 17.1054 18.8429 16.9621 18.9078 16.832L18.9125 16.8234L20.0274 14.7555C20.0626 14.6829 20.0683 14.5995 20.0434 14.5227C20.0185 14.446 19.9649 14.3819 19.8938 14.3438L17.2602 13.2289L17.2414 13.2203C17.1983 13.1985 17.1507 13.1873 17.1024 13.1875C17.0443 13.1875 16.9874 13.2036 16.938 13.2341C16.8886 13.2646 16.8487 13.3082 16.8227 13.3602L15.0946 16.7977C15.073 16.841 15.0617 16.8887 15.0617 16.9371C15.0617 16.9855 15.073 17.0333 15.0946 17.0766L19.6344 26.1391C19.6604 26.191 19.7003 26.2346 19.7497 26.2651C19.7991 26.2956 19.856 26.3118 19.9141 26.3117H27.25C27.3329 26.3117 27.4124 26.2788 27.471 26.2202C27.5296 26.1616 27.5625 26.0821 27.5625 25.9992V23.5Z" fill="#111111"/>
</svg>
