<svg width="16" height="16" viewBox="0 0 16 16" fill="none" xmlns="http://www.w3.org/2000/svg">
<path d="M8 10C9.10457 10 10 9.10457 10 8C10 6.89543 9.10457 6 8 6C6.89543 6 6 6.89543 6 8C6 9.10457 6.89543 10 8 10Z" stroke="#717171"/>
<path d="M9.17672 1.43459C8.93206 1.33325 8.62139 1.33325 8.00006 1.33325C7.37872 1.33325 7.06806 1.33325 6.82339 1.43459C6.66151 1.50159 6.51442 1.59985 6.39054 1.72373C6.26665 1.84762 6.1684 1.99471 6.10139 2.15659C6.04006 2.30525 6.01539 2.47925 6.00606 2.73192C6.00172 2.91454 5.95112 3.09307 5.85902 3.25082C5.76691 3.40857 5.63629 3.54038 5.47939 3.63392C5.31993 3.7231 5.14045 3.77037 4.95774 3.7713C4.77504 3.77223 4.59509 3.7268 4.43472 3.63925C4.21072 3.52059 4.04872 3.45525 3.88806 3.43392C3.5376 3.38783 3.18319 3.48279 2.90272 3.69792C2.69339 3.85992 2.53739 4.12859 2.22672 4.66659C1.91606 5.20459 1.76006 5.47325 1.72606 5.73658C1.70315 5.91022 1.71467 6.08667 1.75997 6.25585C1.80527 6.42503 1.88345 6.58363 1.99006 6.72258C2.08872 6.85058 2.22672 6.95792 2.44072 7.09258C2.75606 7.29058 2.95872 7.62792 2.95872 7.99992C2.95872 8.37192 2.75606 8.70925 2.44072 8.90658C2.22672 9.04192 2.08806 9.14925 1.99006 9.27725C1.88345 9.41621 1.80527 9.57481 1.75997 9.74399C1.71467 9.91317 1.70315 10.0896 1.72606 10.2633C1.76072 10.5259 1.91606 10.7953 2.22606 11.3333C2.53739 11.8713 2.69272 12.1399 2.90272 12.3019C3.04168 12.4085 3.20028 12.4867 3.36946 12.532C3.53864 12.5773 3.71509 12.5888 3.88872 12.5659C4.04872 12.5446 4.21072 12.4793 4.43472 12.3606C4.59509 12.273 4.77504 12.2276 4.95774 12.2285C5.14045 12.2295 5.31993 12.2767 5.47939 12.3659C5.80139 12.5526 5.99272 12.8959 6.00606 13.2679C6.01539 13.5213 6.03939 13.6946 6.10139 13.8433C6.1684 14.0051 6.26665 14.1522 6.39054 14.2761C6.51442 14.4 6.66151 14.4982 6.82339 14.5653C7.06806 14.6666 7.37872 14.6666 8.00006 14.6666C8.62139 14.6666 8.93206 14.6666 9.17672 14.5653C9.3386 14.4982 9.48569 14.4 9.60957 14.2761C9.73346 14.1522 9.83171 14.0051 9.89872 13.8433C9.96006 13.6946 9.98472 13.5213 9.99406 13.2679C10.0074 12.8959 10.1987 12.5519 10.5207 12.3659C10.6802 12.2767 10.8597 12.2295 11.0424 12.2285C11.2251 12.2276 11.405 12.273 11.5654 12.3606C11.7894 12.4793 11.9514 12.5446 12.1114 12.5659C12.285 12.5888 12.4615 12.5773 12.6307 12.532C12.7998 12.4867 12.9584 12.4085 13.0974 12.3019C13.3074 12.1406 13.4627 11.8713 13.7734 11.3333C14.0841 10.7953 14.2401 10.5266 14.2741 10.2633C14.297 10.0896 14.2854 9.91317 14.2401 9.74399C14.1948 9.57481 14.1167 9.41621 14.0101 9.27725C13.9114 9.14925 13.7734 9.04192 13.5594 8.90725C13.4033 8.81218 13.274 8.67908 13.1834 8.52039C13.0928 8.3617 13.0439 8.18263 13.0414 7.99992C13.0414 7.62792 13.2441 7.29059 13.5594 7.09325C13.7734 6.95792 13.9121 6.85058 14.0101 6.72258C14.1167 6.58363 14.1948 6.42503 14.2401 6.25585C14.2854 6.08667 14.297 5.91022 14.2741 5.73658C14.2394 5.47392 14.0841 5.20459 13.7741 4.66659C13.4627 4.12859 13.3074 3.85992 13.0974 3.69792C12.9584 3.59131 12.7998 3.51313 12.6307 3.46783C12.4615 3.42253 12.285 3.41101 12.1114 3.43392C11.9514 3.45525 11.7894 3.52059 11.5647 3.63925C11.4044 3.72668 11.2246 3.77205 11.042 3.77112C10.8595 3.77018 10.6801 3.72298 10.5207 3.63392C10.3638 3.54038 10.2332 3.40857 10.1411 3.25082C10.049 3.09307 9.9984 2.91454 9.99406 2.73192C9.98472 2.47859 9.96072 2.30525 9.89872 2.15659C9.83171 1.99471 9.73346 1.84762 9.60957 1.72373C9.48569 1.59985 9.3386 1.50159 9.17672 1.43459Z" stroke="#717171"/>
</svg>
