<svg width="16" height="16" viewBox="0 0 16 16" fill="none" xmlns="http://www.w3.org/2000/svg">
<path d="M10 1.6665V2.6665C10 3.60917 10 4.0805 10.2933 4.37317C10.5853 4.6665 11.0567 4.6665 12 4.6665H13" stroke="#717171" stroke-linecap="round" stroke-linejoin="round"/>
<path d="M5.33329 7.33325H10.6666M5.33329 9.33325H10.6666M5.33329 11.3333H8.11329M2.66663 10.6666V5.33325C2.66663 3.44792 2.66663 2.50459 3.25263 1.91925C3.83796 1.33325 4.78129 1.33325 6.66663 1.33325H9.44796C9.71996 1.33325 9.85663 1.33325 9.97929 1.38392C10.1013 1.43459 10.198 1.53059 10.3906 1.72392L12.9426 4.27592C13.136 4.46925 13.232 4.56525 13.2826 4.68792C13.3333 4.80992 13.3333 4.94659 13.3333 5.21859V10.6666C13.3333 12.5519 13.3333 13.4953 12.7473 14.0806C12.162 14.6666 11.2186 14.6666 9.33329 14.6666H6.66663C4.78129 14.6666 3.83796 14.6666 3.25263 14.0806C2.66663 13.4953 2.66663 12.5519 2.66663 10.6666Z" stroke="#717171" stroke-linecap="round" stroke-linejoin="round"/>
</svg>
