<svg width="16" height="16" viewBox="0 0 16 16" fill="none" xmlns="http://www.w3.org/2000/svg">
<path d="M12.0266 9.03335C11.7466 9.30668 11.5866 9.70002 11.6266 10.12C11.6866 10.84 12.3466 11.3667 13.0666 11.3667H14.3333V12.16C14.3333 13.54 13.2066 14.6667 11.8266 14.6667H4.17329C2.79329 14.6667 1.66663 13.54 1.66663 12.16V7.67336C1.66663 6.29336 2.79329 5.16669 4.17329 5.16669H11.8266C13.2066 5.16669 14.3333 6.29336 14.3333 7.67336V8.63336H12.9866C12.6133 8.63336 12.2733 8.78001 12.0266 9.03335Z" stroke="#717171" stroke-linecap="round" stroke-linejoin="round"/>
<path d="M1.66663 8.27334V5.22671C1.66663 4.43337 2.15329 3.72668 2.89329 3.44668L8.18663 1.44668C9.01329 1.13334 9.89996 1.7467 9.89996 2.63336V5.16669" stroke="#717171" stroke-linecap="round" stroke-linejoin="round"/>
<path d="M15.0392 9.31343V10.6868C15.0392 11.0535 14.7458 11.3534 14.3725 11.3668H13.0658C12.3458 11.3668 11.6858 10.8401 11.6258 10.1201C11.5858 9.70011 11.7458 9.30677 12.0258 9.03344C12.2725 8.7801 12.6125 8.63345 12.9858 8.63345H14.3725C14.7458 8.64679 15.0392 8.94676 15.0392 9.31343Z" stroke="#717171" stroke-linecap="round" stroke-linejoin="round"/>
<path d="M4.66663 8H9.33329" stroke="#717171" stroke-linecap="round" stroke-linejoin="round"/>
</svg>
